P3
3 2
255
0 0 0 0 0 0 
100 10 100 100 10 100 
250 250 250 250 250 250 
